<?xml version="1.0" encoding="utf-8"?>
<!-- Generator: Adobe Illustrator 22.0.0, SVG Export Plug-In . SVG Version: 6.00 Build 0)  -->
<svg version="1.1" id="Layer_1" xmlns="http://www.w3.org/2000/svg" xmlns:xlink="http://www.w3.org/1999/xlink" x="0px" y="0px"
	 width="285px" height="80px" viewBox="0 0 285 80" style="enable-background:new 0 0 285 80;" xml:space="preserve">
<style type="text/css">
	.st0{fill:#E9963E;}
	.st1{fill:#FFFFFF;}
</style>
<g>
	<path class="st0" d="M243.6,20.8h10.3l-0.3,1.6c2.7-1.6,5.7-2.2,8.7-2.2c11.7,0,17.2,6.7,14.7,18.4l-5.1,23.9h-11.3l5-23.7
		c0.8-4-1.7-7.2-5.7-7.2c-3.9,0-7.7,2.8-8.7,6.7l-5.1,24.2h-11.3L243.6,20.8z"/>
	<g>
		<path class="st1" d="M14,13.8L0.1,14.5L3.2,0L285,0.1l0,0L26.1,13.2L15.7,62.5H3.8L14,13.8z"/>
		<path class="st1" d="M57,62.5H46.4l0.4-2.2c-2.1,1.3-5.2,2.2-8.5,2.2c-11.7,0-17.2-6.7-14.7-18.4l5.1-23.9h11.3L35,43.9
			c-0.8,4,1.7,7.2,5.7,7.2c3.9,0,7.8-2.8,8.7-6.7l5.2-24.2h11.3L57,62.5z"/>
		<path class="st1" d="M69.9,20.8h10.3l-0.3,1.6c2.7-1.6,5.7-2.2,8.7-2.2c11.7,0,17.2,6.7,14.7,18.4l-5.1,23.9H86.9l5-23.7
			c0.8-4-1.7-7.2-5.7-7.2c-3.9,0-7.7,2.8-8.7,6.7l-5.1,24.2H61.1L69.9,20.8z"/>
		<path class="st1" d="M154.1,20.2l-9,42.3h-10.3l0.7-3.1c-3.8,2.1-7.8,3.1-11.9,3.1c-11.7,0-19.4-9.7-16.9-21.5
			c2.5-11.7,14.2-21.5,26-21.5c4.1,0,7.8,1.2,10.6,3.2l0.6-2.5H154.1z M125.9,51.3c5.7,0,11.2-4.5,12.5-10.3
			c1.2-5.8-2.3-10.3-8.1-10.3c-5.7,0-11.2,4.5-12.4,10.3C116.6,46.8,120.1,51.3,125.9,51.3z"/>
		<path class="st0" d="M169.3,21.7c2.4-0.9,4.8-1.5,7.4-1.5c11.7,0,17.2,6.7,14.7,18.4l-5.1,23.9H175l5-23.7c0.8-4-1.7-7.2-5.7-7.2
			s-8,3.2-8.8,7.2l-5,23.7h-11.2l10.2-52.3h11.9L169.3,21.7z"/>
		<path class="st0" d="M240.4,20.2l-8.8,42.3h-10.3l0.5-3.1c-3.8,2.1-7.8,3.1-11.9,3.1c-11.7,0-19.4-9.7-16.9-21.5
			c2.5-11.7,14.2-21.5,26-21.5c4.1,0,7.8,1.2,10.6,3.2l0.6-2.5H240.4z M212.2,51.3c5.7,0,11.2-4.5,12.5-10.3
			c1.2-5.8-2.3-10.3-8.1-10.3c-5.7,0-11.2,4.5-12.4,10.3C202.9,46.8,206.4,51.3,212.2,51.3z"/>
		<polygon class="st0" points="271.2,67.5 2.6,67.5 0,80 		"/>
	</g>
</g>
</svg>
