<?xml version="1.0" encoding="utf-8"?>
<!-- Generator: Adobe Illustrator 22.0.0, SVG Export Plug-In . SVG Version: 6.00 Build 0)  -->
<svg version="1.1" id="Layer_1" xmlns="http://www.w3.org/2000/svg" xmlns:xlink="http://www.w3.org/1999/xlink" x="0px" y="0px"
	 width="251px" height="63.5px" viewBox="0 0 251 63.5" style="enable-background:new 0 0 251 63.5;" xml:space="preserve">
<style type="text/css">
	.st0{fill:#85348A;}
	.st1{fill:#6F2672;}
	.st2{fill:#E47F3A;}
	.st3{fill:#E9963E;}
</style>
<g>
	<g>
		<path class="st0" d="M179.1,57.3V43.5H166v13.8h-10.3V20.9H166v13.8h13.1V20.9h10.2v36.3h-10.2V57.3z"/>
		<path class="st0" d="M240.1,40.8c-0.3-4.4-0.3-6-0.3-7.4V20.9h10.3v36.3h-8.7l-15.2-19.6l0.2,7.9v11.6H216V20.9h8.7L240.1,40.8z"
			/>
		<path class="st0" d="M104.4,21v19.9c0.1,10.5-6.4,16.4-16.8,16.4s-16.8-5.6-16.8-16.5V21h10v19.8c0,5.6,2.7,7.9,6.8,7.9
			c4.1,0,6.8-2.4,6.8-7.8V21H104.4z"/>
		<path class="st0" d="M119.6,40.8c-0.3-4.4-0.3-6-0.3-7.4V20.9h10.3v36.3h-8.7L94.4,20.9h10.2L119.6,40.8z"/>
		<polygon class="st0" points="96.5,0.9 74.8,0.9 58.4,0.9 58,0.9 34.6,56.5 34.8,56.5 51.4,56.5 68.2,16.7 89.9,16.7 		"/>
		<polygon class="st0" points="97.3,11.4 92.1,11.4 89.9,16.7 95.1,16.7 		"/>
		<polygon class="st0" points="104.8,6.2 99.5,6.2 97.3,11.4 102.6,11.4 		"/>
		<polygon class="st0" points="112.2,0.9 107,0.9 104.8,6.2 110,6.2 		"/>
		<polygon class="st0" points="101.7,0.9 96.5,0.9 94.3,6.2 99.5,6.2 		"/>
		<polygon class="st0" points="129.6,20.9 166,57.2 154.6,57.2 119.3,22.1 119.3,20.9 		"/>
		<polygon class="st0" points="146.3,43.5 132.2,43.5 132.2,43.5 139.6,50.9 153.7,50.9 		"/>
		<polygon class="st0" points="206,43.5 191.9,43.5 191.9,43.5 199.3,50.9 213.4,50.9 		"/>
		<polygon class="st0" points="189.3,20.9 225.7,57.2 214.3,57.2 179.1,22.1 179.1,20.9 		"/>
	</g>
	<g>
		<polygon class="st1" points="61.1,7.4 55.5,7.4 34.6,56.5 34.8,56.5 51.4,56.5 61.1,33.6 		"/>
		<polygon class="st1" points="58,0.9 58,7.4 55.3,7.4 		"/>
	</g>
	<polygon class="st2" points="37.6,23.1 37.6,63 20.9,63 	"/>
	<polygon class="st2" points="22.4,7.4 15.7,23.1 22.4,23.1 	"/>
	<g>
		<path class="st3" d="M229.4,14.1h-7.1l-1,2.6h-4.8l7.1-15.9h4.5l7.1,15.9h-4.8L229.4,14.1z M225.9,5.3l-2,5h4.1L225.9,5.3z"/>
		<path class="st3" d="M250,16.7h-5l-3.7-5.1h-1.6v5.1h-4.5V0.8h7.7c4.1,0,6.2,2.6,6.2,5.5c0,1.9-0.7,3.6-3.4,4.8l4.1,5.3v0.3H250z
			 M239.8,4.4v3.8h3.3c1.2,0,1.7-0.9,1.7-1.8c0-1-0.6-2-1.7-2C243.1,4.4,239.8,4.4,239.8,4.4z"/>
		<polygon class="st3" points="60.8,7.4 44.3,7.4 22.4,7.4 15.7,23.1 37.6,23.1 20.9,63 37.6,63 61.1,7.4 		"/>
		<path class="st3" d="M212.7,3.9h3.9V0h-3.9c-5.9,0-8.6,4.3-8.6,8.4c0,4.3,2.4,8.2,8.6,8.3h3.9v-3.9h-3.9c-3-0.1-4.1-2.3-4.1-4.4
			C208.5,6.4,209.7,3.9,212.7,3.9z"/>
	</g>
	<g>
		<path class="st2" d="M136.6,17h-4.9l-3.7-5.1h-1.6V17h-4.5V1.1h7.7c4.1,0,6.2,2.6,6.2,5.5c0,1.9-0.7,3.6-3.4,4.8l4.1,5.3L136.6,17
			L136.6,17z M126.4,4.7v3.8h3.3c1.2,0,1.7-0.9,1.7-1.8c0-1-0.6-2-1.7-2H126.4z"/>
		<path class="st2" d="M149.3,17h-12.7V1.1H149v3.8h-8v2.3h7.5v3.6H141v2.4h8.3V17z"/>
		<path class="st2" d="M161.4,9.8c-0.1-1.9-0.1-2.6-0.1-3.2V1.1h4.5V17H162l-6.6-8.5l0.1,3.5v5H151V1.1h3.8L161.4,9.8z"/>
		<path class="st2" d="M170.4,4.8h-4.6V1.1h13.7v3.7h-4.6V17h-4.5L170.4,4.8L170.4,4.8z"/>
		<path class="st2" d="M187.5,14.4h-7.1l-1,2.6h-4.8l7.1-15.9h4.5l7.1,15.9h-4.8L187.5,14.4z M183.9,5.6l-2,5h4.1L183.9,5.6z"/>
		<path class="st2" d="M197.8,1.1v12h7.6V17h-12.1V1.1H197.8z"/>
		<polygon class="st2" points="17.9,17.9 12.7,17.9 10.5,23.1 15.7,23.1 		"/>
		<polygon class="st2" points="7.5,17.9 2.2,17.9 0,23.1 5.2,23.1 		"/>
		<polygon class="st2" points="14.9,12.7 9.7,12.7 7.5,17.9 12.7,17.9 		"/>
		<polygon class="st2" points="22.4,7.4 17.1,7.4 14.9,12.7 20.2,12.7 		"/>
		<rect x="117.5" y="8.5" class="st2" width="9.1" height="3.2"/>
		<rect x="147.8" y="1.1" class="st2" width="3.8" height="3.8"/>
	</g>
</g>
</svg>
