<?xml version="1.0" encoding="utf-8"?>
<!-- Generator: Adobe Illustrator 22.0.0, SVG Export Plug-In . SVG Version: 6.00 Build 0)  -->
<svg version="1.1" id="Layer_1" xmlns="http://www.w3.org/2000/svg" xmlns:xlink="http://www.w3.org/1999/xlink" x="0px" y="0px"
	 width="285px" height="63px" viewBox="0 0 285 63" style="enable-background:new 0 0 285 63;" xml:space="preserve">
<style type="text/css">
	.st0{fill:#2B3D83;}
	.st1{fill:#FFFFFF;}
	.st2{fill:#243062;}
</style>
<g>
	<path class="st0" d="M105.1,20.6v20c0,10.6-6.4,16.5-16.9,16.5s-16.9-5.7-16.9-16.6V20.6h10.1v19.9c0,5.7,2.8,7.9,6.8,7.9
		c4,0,6.8-2.5,6.8-7.9V20.6H105.1z"/>
	<path class="st0" d="M120.4,40.5c-0.3-4.4-0.3-6-0.3-7.4V20.5h10.4v36.6h-8.8L95.1,20.5h10.3L120.4,40.5z"/>
	<path class="st0" d="M160.3,51.1h-16.4l-2.4,6h-11l16.4-36.6h10.4l16.4,36.6h-11.1L160.3,51.1z M152.1,30.8l-4.7,11.7h9.3
		L152.1,30.8z"/>
	<path class="st0" d="M197.3,57.2V43.3h-13.2v13.8h-10.3V20.6h10.3v13.8h13.2V20.6h10.2v36.6h-10.2V57.2z"/>
	<path class="st0" d="M236.7,51.1h-16.4l-2.4,6h-11l16.4-36.6h10.4l16.4,36.6h-11.1L236.7,51.1z M228.5,30.8l-4.7,11.7h9.3
		L228.5,30.8z"/>
	<path class="st0" d="M274.5,40.5c-0.3-4.4-0.3-6-0.3-7.4V20.5h10.4v36.6h-8.8l-15.2-19.6l0.1,8.1v11.7h-10.4V20.5h8.8L274.5,40.5z"
		/>
	<g>
		<path class="st1" d="M145.4,16.4h-4.9l-3.8-5.2h-1.5v5.2h-4.5v-16h7.8c4,0,6.2,2.6,6.2,5.5c0,2-0.6,3.7-3.4,4.8l4.2,5.4
			C145.4,16.1,145.4,16.4,145.4,16.4z M135.2,4v3.8h3.3c1.1,0,1.8-0.9,1.8-1.9s-0.6-2-1.8-2h-3.3V4z"/>
		<path class="st1" d="M160.6,16.4h-12.7v-16h12.5v3.8h-8.1v2.3h7.6v3.7h-7.6v2.4h8.3V16.4z"/>
		<path class="st1" d="M174.2,9.1c-0.1-1.9-0.1-2.6-0.1-3.3V0.4h4.5v16h-3.8l-6.7-8.6l0.1,3.5v5h-4.7v-16h3.8L174.2,9.1z"/>
		<path class="st1" d="M185.7,4H181V0.3h13.8V4h-4.7v12.3h-4.5V4z"/>
		<path class="st1" d="M206.9,13.7h-7.2l-1,2.6h-4.8l7.2-16h4.5l7.2,16H208L206.9,13.7z M203.3,4.8l-2,5h4L203.3,4.8z"/>
		<path class="st1" d="M218.9,0.4v12.1h7.7v3.8h-12.2V0.4H218.9z"/>
		<path class="st1" d="M248.4,14.2c-1.8,1.8-4,2.5-6.4,2.5c-6.3,0-8.7-3.9-8.7-8.3c0-4.2,2.8-8.4,8.7-8.4c2.3,0,4.4,0.8,6.2,2.5
			l-2.8,2.8c-1.1-1.1-2.3-1.4-3.4-1.4c-3,0-4.3,2.5-4.3,4.5s1.1,4.4,4.3,4.4c1.1,0,2.6-0.5,3.8-1.6L248.4,14.2z"/>
		<path class="st1" d="M261.7,13.7h-7.2l-1,2.6h-4.8l7.2-16h4.5l7.2,16h-4.8L261.7,13.7z M258.1,4.8l-2,5h4L258.1,4.8z"/>
		<path class="st1" d="M284,16.4h-4.9l-3.8-5.2h-1.5v5.2h-4.5v-16h7.8c4,0,6.2,2.6,6.2,5.5c0,2-0.6,3.7-3.4,4.8l4.2,5.4V16.4z
			 M273.8,4v3.8h3.3c1.1,0,1.8-0.9,1.8-1.9s-0.6-2-1.8-2h-3.3V4z"/>
	</g>
	<polygon class="st0" points="97.1,0.5 75.3,0.5 58.8,0.5 58.4,0.5 34.9,56.4 35.1,56.4 51.7,56.4 68.6,16.4 90.4,16.4 	"/>
	<polygon class="st2" points="61.4,7.1 55.8,7.1 34.9,56.4 35.1,56.4 51.7,56.4 61.4,33.4 	"/>
	<polygon class="st1" points="61.2,7.1 44.6,7.1 22.5,7.1 15.9,22.8 37.9,22.8 21,63 37.9,63 61.4,7.1 	"/>
	<polygon class="st2" points="58.4,0.5 58.4,7.1 55.6,7.1 	"/>
	<polygon class="st1" points="37.9,22.8 37.9,63 21,63 	"/>
	<polygon class="st1" points="22.5,7.1 15.9,22.8 22.5,22.8 	"/>
	<polygon class="st1" points="18,17.5 12.8,17.5 10.6,22.8 15.9,22.8 	"/>
	<polygon class="st0" points="98,11.1 92.7,11.1 90.4,16.4 95.7,16.4 	"/>
	<polygon class="st0" points="105.5,5.8 100.2,5.8 98,11.1 103.2,11.1 	"/>
	<polygon class="st0" points="112.9,0.5 107.6,0.5 105.5,5.8 110.8,5.8 	"/>
	<polygon class="st0" points="102.4,0.5 97.1,0.5 94.9,5.8 100.2,5.8 	"/>
	<polygon class="st1" points="7.6,17.5 2.3,17.5 0,22.8 5.3,22.8 	"/>
	<polygon class="st1" points="15,12.2 9.7,12.2 7.6,17.5 12.8,17.5 	"/>
	<polygon class="st1" points="22.5,7.1 17.2,7.1 15,12.2 20.3,12.2 	"/>
	<rect x="126.2" y="7.8" class="st1" width="9.2" height="3.3"/>
</g>
</svg>
