<?xml version="1.0" encoding="utf-8"?>
<!-- Generator: Adobe Illustrator 22.0.0, SVG Export Plug-In . SVG Version: 6.00 Build 0)  -->
<svg version="1.1" id="Layer_1" xmlns="http://www.w3.org/2000/svg" xmlns:xlink="http://www.w3.org/1999/xlink" x="0px" y="0px"
	 width="285px" height="91.1px" viewBox="0 0 285 91.1" style="enable-background:new 0 0 285 91.1;" xml:space="preserve">
<style type="text/css">
	.st0{fill:#E9963E;}
	.st1{fill:#7B3B86;}
	.st2{fill:none;}
</style>
<g>
	<g>
		<path class="st0" d="M243.7,20.2H254l-0.5,2.2c2.7-1.6,5.7-2.2,8.7-2.2c11.7,0,17.2,6.7,14.7,18.4l-5.1,23.9h-11.3l5-23.7
			c0.8-4-1.7-7.2-5.7-7.2c-3.9,0-7.7,2.8-8.7,6.7l-5.1,24.2h-11.3L243.7,20.2z"/>
	</g>
	<g>
		<path class="st1" d="M57,62.5H46.4l0.4-2.2c-2.1,1.3-5.2,2.2-8.5,2.2c-11.7,0-17.2-6.7-14.7-18.4l5.1-23.9h11.3L35,43.9
			c-0.8,4,1.7,7.2,5.7,7.2c3.9,0,7.8-2.8,8.7-6.7l5.2-24.2h11.3L57,62.5z"/>
	</g>
	<g>
		<path class="st1" d="M70,20.2h10.3l-0.5,2.2c2.7-1.6,5.7-2.2,8.7-2.2c11.7,0,17.2,6.7,14.7,18.4l-5.1,23.9H86.9l5-23.7
			c0.8-4-1.7-7.2-5.7-7.2c-3.9,0-7.7,2.8-8.7,6.7l-5.1,24.2H61.1L70,20.2z"/>
	</g>
	<g>
		<path class="st1" d="M154.1,20.2l-9,42.3h-10.3l0.7-3.1c-3.8,2.1-7.8,3.1-11.9,3.1c-11.7,0-19.4-9.7-16.9-21.5
			c2.5-11.7,11-20.8,25.9-20.8c4.1,0,7.9,0.5,10.6,2.5l0.6-2.5H154.1z M125.9,51.3c5.7,0,11.2-4.5,12.5-10.3
			c1.2-5.8-2.3-10.3-8.1-10.3c-5.7,0-11.2,4.5-12.4,10.3C116.6,46.8,120.1,51.3,125.9,51.3z"/>
	</g>
	<g>
		<path class="st0" d="M169.3,21.7c2.4-0.9,4.8-1.5,7.4-1.5c11.7,0,17.2,6.7,14.7,18.4l-5.1,23.9H175l5-23.7c0.8-4-1.7-7.2-5.7-7.2
			s-8,3.2-8.8,7.2l-5,23.7h-11.2l9.9-51.3h11.9L169.3,21.7z"/>
	</g>
	<g>
		<path class="st0" d="M240.4,20.2l-8.8,42.3h-10.3l0.5-3.1c-3.8,2.1-7.8,3.1-11.9,3.1c-11.7,0-19.4-9.7-16.9-21.5
			c2.5-11.7,11-20.8,26-20.8c4.1,0,7.8,0.5,10.6,2.5l0.6-2.5H240.4z M212.2,51.3c5.7,0,11.2-4.5,12.5-10.3
			c1.2-5.8-2.3-10.3-8.1-10.3c-5.7,0-11.2,4.5-12.4,10.3C202.9,46.8,206.4,51.3,212.2,51.3z"/>
	</g>
	<g>
		<polygon class="st0" points="270.9,67.5 2.6,67.5 0,80 		"/>
	</g>
	<g>
		<line class="st2" x1="0.1" y1="14.5" x2="284.9" y2="0.1"/>
	</g>
	<g>
		<polygon class="st1" points="285,0.1 3.2,0 0.1,14.5 0.1,14.5 14.1,13.8 3.8,62.5 3.8,62.5 15.7,62.5 15.7,62.5 26.1,13.2 		"/>
	</g>
	<g>
		<path class="st1" d="M146.7,76.8h3.8l-0.1,0.3c0.9-0.4,1.8-0.6,2.6-0.6h0.2c0.4,0,0.9,0,2.1,0.2l-0.9,4.4h-2.3
			c-1.1,0-1.9,0.7-2.1,1.6l-1.7,8.1h-4.6L146.7,76.8z"/>
		<path class="st1" d="M162.8,87c0.9-0.2,1.5-0.5,2-0.7l0.7,3.2c-1.6,0.9-3.3,1.5-5.9,1.5c-4.2,0-6.6-3.3-5.7-7.3
			c0.8-4,4.6-7.2,8.7-7.2c3.7,0,5.9,2.8,5,7l-0.4,1.8h-8.8c-0.1,0.6,0.8,1.8,2.5,1.8C161.4,87.2,162,87.2,162.8,87z M163.5,82.3
			c0.1-0.8-0.5-1.7-2-1.7c-1.3,0-2.4,1-2.6,1.7H163.5z"/>
		<path class="st1" d="M170.7,76.8h3.8l-0.1,0.3c0.9-0.4,1.8-0.6,2.6-0.6c4,0,5.9,2.3,5,6.3l-1.7,8h-4.6l1.7-8
			c0.2-1-0.4-1.7-1.4-1.7c-0.9,0-1.8,0.7-2.1,1.6l-1.7,8.1h-4.6L170.7,76.8z"/>
		<path class="st1" d="M187.6,73h4.6l-0.8,3.8h3l-0.9,4.2h-3l-2.1,9.8h-4.6L186,81h-3.1l0.9-4.2h3.1L187.6,73z"/>
		<path class="st1" d="M211,76.6c1.2,0,2.3,0.3,3.2,0.8l0.1-0.7h3.9l-3,14.2h-3.9l0.1-0.5c-1.1,0.5-2.3,0.8-3.5,0.8
			c-3.9,0-6.5-3.3-5.7-7.3C203.1,79.9,207.1,76.6,211,76.6z M208.9,86.6c1.6,0,3-1.2,3.3-2.7c0.3-1.6-0.6-2.7-2.1-2.7
			c-1.5,0-2.9,1.2-3.2,2.7C206.5,85.4,207.4,86.6,208.9,86.6z"/>
		<path class="st1" d="M241,79.8l-4.2,2.4c-0.4-0.5-0.9-1-2-1c-1.5,0-2.9,1.2-3.2,2.6c-0.3,1.5,0.6,2.7,2.1,2.7c1,0,1.8-0.5,2.8-1.5
			l3.5,2.1c-1.7,2.4-4.5,4-7.3,4c-4.1,0-6.6-3.2-5.7-7.3c0.8-4,4.8-7.2,8.8-7.2C238.1,76.6,240.1,78,241,79.8z"/>
		<path class="st1" d="M250.7,76.6c1.2,0,2.3,0.3,3.2,0.8l0.1-0.7h3.9l-3,14.2H251l0.1-0.5c-1.1,0.5-2.3,0.8-3.5,0.8
			c-3.9,0-6.5-3.3-5.7-7.3C242.8,79.9,246.7,76.6,250.7,76.6z M248.5,86.6c1.6,0,3-1.2,3.3-2.7c0.3-1.6-0.6-2.7-2.1-2.7
			c-1.5,0-2.9,1.2-3.2,2.7C246.1,85.4,247.1,86.6,248.5,86.6z"/>
		<path class="st1" d="M260.1,76.8h3.8l-0.1,0.3c0.9-0.4,1.8-0.6,2.6-0.6h0.2c0.4,0,0.9,0,2.1,0.2l-0.9,4.4h-2.3
			c-1.1,0-1.9,0.7-2.1,1.6l-1.7,8.1h-4.6L260.1,76.8z"/>
	</g>
</g>
</svg>
